<svg xmlns="http://www.w3.org/2000/svg" viewBox="0 0 112.94 57.42"><defs><style>.a,.i{fill:#829ab1;}.b,.f,.j{fill:#102a43;}.c{fill:#d9e2ec;}.d{fill:#9fb3c8;}.e{fill:#00a99d;}.f,.i{font-size:18px;}.f{font-family:Oswald-Medium, Oswald;font-weight:500;}.g{letter-spacing:0em;}.h{letter-spacing:0em;}.i{font-family:Oswald-Light, Oswald;font-weight:300;}.j{font-size:11px;font-family:Oswald-ExtraLight, Oswald;font-weight:200;letter-spacing:0.1em;}</style></defs><path class="a" d="M26.41.36C26.41.5,53,15.68,53,15.68L26.42,31-.12,15.68" transform="translate(0.12 -0.36)"/><polygon class="b" points="34.29 8.3 18.78 17.25 14.91 15.01 30.41 6.06 26.54 3.82 7.15 15.01 18.79 21.73 34.29 12.78 38.17 15.02 22.66 23.97 26.54 26.2 45.92 15.02 34.29 8.3"/><polygon class="c" points="53.08 41.85 26.54 57.18 26.54 30.64 53.08 15.32 53.08 41.85"/><polygon class="b" points="49.28 21.3 30.33 32.24 30.33 43.62 45.49 34.86 45.49 38.65 30.33 47.41 30.33 51.2 49.28 40.25 49.28 28.88 34.12 37.63 34.12 33.84 49.28 25.09 49.28 21.3"/><polygon class="d" points="26.54 57.18 0 41.85 0 15.32 26.54 30.64 26.54 57.18"/><polygon class="b" points="3.79 21.3 3.79 40.25 7.58 42.44 7.58 34.86 18.96 41.43 18.96 49.01 22.75 51.2 22.75 32.24 18.96 30.05 18.96 37.63 7.58 31.07 7.58 23.49 3.79 21.3"/><path class="e" d="M21.5,24" transform="translate(0.12 -0.36)"/><text class="f" transform="translate(60.43 19.87)"><tspan class="g">T</tspan><tspan x="7.65" y="0">OO</tspan><tspan class="g" x="27.92" y="0">L</tspan><tspan class="h" x="35.42" y="0">S </tspan></text><text class="f" transform="translate(62.26 51.61)">MORE</text><text class="i" transform="translate(58.99 35.26)">•</text><text class="i" transform="translate(100.53 35.45)">•</text><text class="j" transform="translate(62.38 33.11) scale(7.06 1)">N</text></svg>