<svg id="Layer_1" data-name="Layer 1" xmlns="http://www.w3.org/2000/svg" viewBox="0 0 202.54 67.24"><defs><style>.cls-1{fill:#829ab1;}.cls-11,.cls-2,.cls-5,.cls-8{fill:#102a43;}.cls-3{fill:#d9e2ec;}.cls-4{fill:#9fb3c8;}.cls-5{font-size:11px;font-family:Oswald-Medium, Oswald;font-weight:500;}.cls-6{letter-spacing:-0.01em;}.cls-7{font-size:6px;letter-spacing:0em;}.cls-8{font-size:7px;font-family:Oswald-Light, Oswald;font-weight:300;}.cls-9{letter-spacing:0em;}.cls-10{letter-spacing:0em;}.cls-11{font-size:9px;font-family:Oswald-ExtraLight, Oswald;font-weight:200;letter-spacing:-0.01em;}.cls-12{letter-spacing:-0.01em;}.cls-13{letter-spacing:-0.01em;}.cls-14{letter-spacing:-0.01em;}.cls-15{fill:none;stroke:#829ab1;stroke-linejoin:round;stroke-width:0.5px;}</style></defs><path class="cls-1" d="M34.41,4.36C34.41,4.5,61,19.68,61,19.68L34.42,35,7.88,19.68"/><polygon class="cls-2" points="42.17 12.66 26.67 21.61 22.79 19.37 38.3 10.42 34.42 8.18 15.03 19.37 26.67 26.09 42.17 17.14 46.05 19.37 30.55 28.32 34.42 30.56 53.81 19.38 42.17 12.66"/><polygon class="cls-3" points="60.96 46.22 34.42 61.54 34.42 35 60.96 19.68 60.96 46.22"/><polygon class="cls-2" points="57.17 25.66 38.21 36.6 38.21 47.98 53.38 39.22 53.38 43.01 38.21 51.77 38.21 55.56 57.17 44.61 57.17 33.24 42 41.99 42 38.2 57.17 29.45 57.17 25.66"/><polygon class="cls-4" points="34.42 61.54 7.88 46.22 7.88 19.68 34.42 35 34.42 61.54"/><polygon id="H" class="cls-2" points="11.67 25.66 11.67 44.61 15.46 46.8 15.46 39.22 26.84 45.79 26.84 53.37 30.63 55.56 30.63 36.6 26.84 34.41 26.84 41.99 15.46 35.43 15.46 27.85 11.67 25.66"/><text class="cls-5" transform="translate(71.01 17.77) scale(1.03 1)">H<tspan class="cls-6" x="6.45" y="0">S</tspan><tspan x="11.79" y="0">S Bygningsentreprise </tspan><tspan class="cls-7" x="104.92" y="0">ApS</tspan></text><text class="cls-8" transform="translate(71.97 50) scale(1.07 1)">hssbyg.dk<tspan x="0" y="8.4">hsstoolsnmo</tspan><tspan class="cls-9" x="29.63" y="8.4">r</tspan><tspan class="cls-10" x="31.69" y="8.4">e.dk</tspan></text><text class="cls-11" transform="translate(71.97 29.96) scale(1.19 1)">— alt i mu<tspan class="cls-12" x="29.24" y="0">r</tspan><tspan class="cls-13" x="31.66" y="0">er- og tøm</tspan><tspan class="cls-12" x="61.4" y="0">r</tspan><tspan x="63.82" y="0">e</tspan><tspan class="cls-12" x="67.14" y="0">r</tspan><tspan class="cls-13" x="69.56" y="0">arb</tspan><tspan class="cls-14" x="78.82" y="0">e</tspan><tspan x="82.1" y="0">jde</tspan></text><line class="cls-15" x1="189.42" y1="37.62" x2="71.97" y2="37.62"/></svg>