<svg xmlns="http://www.w3.org/2000/svg" viewBox="0 0 60 70">
	<path fill="#9FB3C8" d="M29.8.1c-.01.14 26.55 15.32 26.55 15.32L29.81 30.74 3.27 15.42"></path>
	<path fill="#102A43" d="M37.56 8.4l-15.51 8.95-3.88-2.24 15.51-8.95-3.88-2.24-19.38 11.19 11.63 6.72 15.51-8.95 3.88 2.23-15.51 8.96 3.88 2.23 19.38-11.19z"></path>
	<path fill="#829AB1" d="M56.34 41.95L29.81 57.28V30.74l26.53-15.32z"></path>
	<path fill="#102A43" d="M52.55 21.4L33.6 32.34v11.37l15.16-8.75v3.79L33.6 47.51v3.79l18.95-10.95V28.98l-15.16 8.75v-3.79l15.16-8.75z"></path>
	<path fill="#D9E2EC" d="M29.81 57.28L3.27 41.95V15.42l26.54 15.32z"></path>
	<path fill="#102A43" d="M7.06 21.4v18.95l3.79 2.19v-7.58l11.37 6.57v7.58l3.8 2.19V32.34l-3.8-2.19v7.58l-11.37-6.56v-7.58z"></path>
</svg>
