<?xml version="1.0" standalone="no"?>
<!DOCTYPE svg PUBLIC "-//W3C//DTD SVG 20010904//EN"
 "http://www.w3.org/TR/2001/REC-SVG-20010904/DTD/svg10.dtd">
<svg version="1.0" xmlns="http://www.w3.org/2000/svg"
 width="700.000000pt" height="700.000000pt" viewBox="0 0 700.000000 700.000000"
 preserveAspectRatio="xMidYMid meet">
<metadata>
Created by potrace 1.11, written by Peter Selinger 2001-2013
</metadata>
<g transform="translate(0.000000,700.000000) scale(0.100000,-0.100000)"
fill="#000000" stroke="none">
<path d="M2273 5848 c-650 -376 -1179 -686 -1175 -689 10 -9 1412 -819 1418
-819 3 0 240 136 527 302 1234 712 1366 788 1372 788 16 0 464 -265 457 -271
-4 -4 -104 -63 -222 -131 -543 -314 -1099 -635 -1360 -786 -157 -90 -288 -167
-293 -171 -13 -12 472 -285 486 -273 7 5 536 312 1177 682 641 369 1168 675
1172 679 8 6 -1384 814 -1412 819 -9 2 -439 -241 -956 -539 -516 -298 -943
-542 -949 -542 -10 0 -443 248 -457 262 -4 4 417 252 937 551 706 408 941 548
932 556 -18 16 -436 256 -455 260 -10 3 -524 -288 -1199 -678z"/>
<path d="M680 3231 l0 -1159 218 -125 c119 -69 225 -129 234 -132 17 -7 18 21
20 452 l3 459 692 -400 693 -400 2 -465 3 -466 220 -127 c121 -70 223 -127
228 -128 4 0 7 521 7 1158 l0 1158 -227 131 -228 131 -3 -459 c-1 -253 -5
-459 -8 -459 -4 0 -317 179 -695 397 l-689 398 -2 465 -3 465 -225 132 c-124
72 -228 132 -232 132 -5 1 -8 -521 -8 -1158z"/>
<path d="M5730 4098 c-278 -160 -795 -459 -1150 -663 l-645 -373 -3 -702 c-1
-386 2 -700 6 -698 8 3 610 350 1430 825 222 128 406 233 408 233 2 0 3 -102
2 -226 l-3 -225 -366 -212 c-202 -117 -616 -356 -922 -532 l-556 -320 -1 -238
0 -238 58 33 c33 18 554 319 1160 668 l1101 635 1 703 0 704 -32 -20 c-18 -11
-211 -122 -428 -247 -217 -125 -612 -353 -877 -507 -266 -153 -490 -281 -498
-284 -13 -5 -15 23 -15 218 l0 224 925 534 925 534 0 233 c0 128 -3 233 -7
233 -5 0 -235 -131 -513 -292z"/>
</g>
</svg>
