<svg xmlns="http://www.w3.org/2000/svg" viewBox="0 0 173.16 41.49">
  <g fill="#FFF">
    <path d="M22.96 0L0 41.44h1.97L24.93 0h-1.97zM28.81 0L6.17 41.45h1.97L30.78 0h-1.97zM34.58 0L11.69 41.44h1.97L36.54 0h-1.96zM159.62 0l-22.94 41.44h1.96L161.59 0h-1.97zM165.49 0l-22.64 41.44h1.97L167.46 0h-1.97zM171.2 0l-22.83 41.44h1.96L173.16 0h-1.96zM40.37 0L17.48 41.44h1.97L42.33 0h-1.96zM153.75 0L130.8 41.44h1.97L155.71 0h-1.96z"/>
    <path d="M66.65 11.75h7.17c1.2 0 1.94-.46 1.9-1.79V6c0-1.18-.53-1.75-2-1.73H68.1V0h-1.45zM68.1 5.6h5.49c.51 0 .68.19.68.57v3.67c0 .45-.13.61-.66.61H68.1zM89.77 3.07c-1.34 0-1.88.64-1.85 1.87v5.25h6.61c1.38 0 2.06-.57 2.05-2.05V5.22c0-1.36-.42-2.17-1.68-2.16zm-.4 2.23c0-.49.06-.72.58-.72h4.61c.42 0 .57.19.56.65v2.85c0 .39-.08.61-.58.61h-5.17zM95.11 14.18v2h1.46v-2.42c0-1.41-.46-2.08-1.88-2.06h-6.77v1.52h6.43c.62 0 .78.3.76 1M82.21 11.71l-1.5 4.53h1.54l4.3-13.16H85l-2.3 7.13h-1.52c-.55 0-.75-.42-1-1.29 0 0-1.27-4.33-1.72-5.87h-1.53l1.86 6.35c.25.84.68 2.32 2.39 2.32zM67.52 38.26h-1.33v.83h1.14v.59h-1.14v1.1h1.36v.65h-2.13v-3.82h2.16l-.06.65zM70 41.43l-.75-1.54c-.23-.48-.46-1.13-.46-1.13s.09.78.09 1.26v1.41h-.76v-3.82h.72l.69 1.4A10.93 10.93 0 0170 40.2s-.09-.84-.09-1.26v-1.33h.76v3.82zM74 41.43h-.8v-3.82h.8c1.07 0 1.74.25 1.74 1.91s-.64 1.91-1.74 1.91m.18-3.23H74v2.63h.2c.52 0 .84-.18.84-1.32s-.3-1.32-.79-1.32M78.58 38.26h-1.34v.83h1.15v.59h-1.15v1.1h1.37v.65h-2.13v-3.82h2.16l-.06.65zM81.04 41.43h-1.86v-3.82h.77v3.17h1.16l-.07.65zM84.89 41.43l-.16-.74h-1.07l-.16.74h-.81l1-3.82h1l1 3.82zm-.49-2.28c-.1-.45-.21-1.05-.21-1.05s-.11.59-.21 1.05l-.2.95h.82zM88.19 38.27H86.9v.82h1.14v.58H86.9v1.76h-.77v-3.82h2.13l-.07.66zM91.17 41.43h-.83v-3.82h.83c1.07 0 1.74.25 1.74 1.91s-.67 1.91-1.74 1.91m.18-3.23h-.25v2.63h.2c.52 0 .84-.18.84-1.32s-.3-1.32-.79-1.32M95.37 41.43l-.16-.74h-1.07l-.16.74h-.81l1-3.82h1l1 3.82zm-.49-2.28c-.1-.45-.21-1.05-.21-1.05s-.11.59-.21 1.05l-.2.95h.82zM98.5 41.43l-.75-1.54c-.23-.48-.46-1.13-.46-1.13s.09.78.09 1.26v1.41h-.76v-3.82h.72L98 39a10.79 10.79 0 01.48 1.19s-.09-.84-.09-1.26v-1.32h.76v3.82zM100.72 41.49a3.29 3.29 0 01-.91-.14v-.65a4 4 0 00.8.16c.31 0 .59-.09.59-.46s-.2-.44-.46-.59l-.34-.19a1.07 1.07 0 01-.62-1 1.06 1.06 0 011.22-1.06 2 2 0 01.83.15v.62a2.55 2.55 0 00-.77-.16c-.27 0-.49.1-.49.4s.17.38.4.5l.33.18a1.17 1.17 0 01.7 1.11c0 .93-.7 1.12-1.24 1.12M102.54 37.61h.76v3.82h-.76zm1.77 3.88l-1-2.13.88-1.75h.86l-1 1.71 1 2.11zM108.15 41.43h-.94v-3.82h.94c.88 0 1.46.14 1.46 1a.79.79 0 01-.71.86c.35.07.82.19.82.9 0 1-.61 1.09-1.57 1.09m0-3.26H108v1h.23c.42 0 .64-.07.64-.56s-.25-.46-.67-.46m0 1.57h-.2v1.13h.21c.46 0 .77 0 .77-.56s-.26-.57-.75-.57M111.6 40v1.43h-.76V40l-1.07-2.39h.87l.58 1.74.58-1.74h.87L111.6 40zM114.18 41.49c-.7 0-1.46-.2-1.46-1.91s.91-2 1.67-2a2 2 0 01.9.2v.61a3.15 3.15 0 00-.9-.19c-.39 0-.91.21-.91 1.35s.4 1.35.68 1.35a3.37 3.37 0 00.52-.05v-1.18h-.52l-.05-.58h1.34v2.21a5.31 5.31 0 01-1.27.2M117.59 41.49c-.7 0-1.46-.2-1.46-1.91s.91-2 1.67-2a2 2 0 01.9.2v.61a3.14 3.14 0 00-.9-.19c-.39 0-.91.21-.91 1.35s.4 1.35.68 1.35a3.36 3.36 0 00.52-.05v-1.18h-.52l-.05-.58h1.34v2.21a5.31 5.31 0 01-1.27.2M121.81 38.26h-1.34v.83h1.15v.59h-1.15v1.1h1.37v.65h-2.13v-3.82h2.16l-.06.65zM124.06 41.43l-.23-.87a1.75 1.75 0 00-.33-.7h-.31v1.54h-.76v-3.79h1c.82 0 1.41.19 1.41 1.08a1 1 0 01-.69 1 1.24 1.24 0 01.38.61l.37 1.1zm-.63-3.22h-.25v1.14c.52 0 .93-.09.93-.65 0-.37-.2-.49-.68-.49M125.53 37.61h.78v3.82h-.78zM123.88 19.78v14.21h2.37V19.74h-2.37v.04zM123.88 14.72v2.55h2.37v-2.56h-2.37v.01zM37.07 19.74c-2.12 0-3 1.06-2.94 3.09v8.68H44.6c2.2 0 3.27-.94 3.25-3.39V23.3c0-2.25-.66-3.59-2.66-3.57zm-.63 3.68c0-.81.1-1.19.92-1.19h7.3c.67 0 .9.31.88 1.08V28c0 .65-.12 1-.92 1h-8.18zM45.53 38.1v3.3h2.31v-4c0-2.34-.73-3.43-3-3.41h-10.7v2.5h10.19c1 0 1.23.49 1.2 1.59M60.33 19.73H51.6v2.5h8.73c1 0 1.55.39 1.55 1.6v1.33h-9.23c-2 0-2.78 1.13-2.78 3.07V31c0 2.11.9 3 2.78 3h11.53V23.52c0-2.5-1.29-3.79-3.85-3.79m-8.15 8.84c0-.54.22-.91.83-.91h8.87v3.85h-8.82c-.65 0-.89-.32-.89-1zM113.24 30.18v-8h4.92v-2.44h-4.91v-5.2h-2.3v16c0 2.7 1 3.49 2.72 3.49H120V31.5h-5.65c-.92 0-1.08-.29-1.08-1.31M95.22 19.73V34h2.31V22.23h7.4c.9 0 1.28.59 1.28 1.66V34h2.31V23.37c0-2.19-.87-3.63-3.31-3.63zM70.94 19.73c-2.41 0-3.47 1.34-3.48 4.1V34h2.37v-9.95c0-1.21.37-1.83 1.47-1.83h5.79v-2.48zM89 19.73h-8.72v2.5H89c1 0 1.55.39 1.55 1.6v1.33h-9.22c-2 0-2.78 1.13-2.78 3.07V31c0 2.11.9 3 2.78 3h11.52V23.52c0-2.5-1.3-3.79-3.85-3.79m-8.15 8.84c0-.54.23-.91.83-.91h8.87v3.85h-8.81c-.65 0-.89-.32-.89-1z"/>
  </g>
</svg>