<svg xmlns="http://www.w3.org/2000/svg" viewBox="0 0 57.18 57.18">
	<path fill="#9FB3C8" d="M28.3,0c-0.01,0.14,26.55,15.32,26.55,15.32L28.31,30.64L1.77,15.32"></path>
	<path fill="#102A43" d="M36.06,8.3l-15.51,8.95l-3.88-2.24l15.51-8.95L28.3,3.82L8.92,15.01l11.63,6.72l15.51-8.95l3.88,2.23l-15.51,8.96l3.88,2.23l19.38-11.19L36.06,8.3z"></path>
	<path fill="#829AB1" d="M54.84,41.85L28.31,57.18V30.64l26.53-15.32V41.85z"></path>
	<path fill="#102A43" d="M51.05,21.3L32.1,32.24v11.37l15.16-8.75v3.79L32.1,47.41v3.79l18.95-10.95V28.88l-15.16,8.75v-3.79l15.16-8.75V21.3z"></path>
	<path fill="#D9E2EC" d="M28.31,57.18L1.77,41.85V15.32l26.54,15.32L28.31,57.18z"></path>
	<path fill="#102A43" d="M5.56,21.3v18.95l3.79,2.19v-7.58l11.37,6.57v7.58l3.8,2.19V32.24l-3.8-2.19v7.58L9.35,31.07v-7.58L5.56,21.3z"></path>
</svg>
